<?xml version="1.0" encoding="UTF-8"?>
<svg xmlns="http://www.w3.org/2000/svg" viewBox="0 0 465.0000 644.0000" width="512" height="512">
  <title>O</title>
  <path d="M 233.0000,0.0000 L 205.1250,1.3125 L 179.0000,5.2500 L 154.6250,11.8125 L 132.0000,21.0000 L 111.1250,32.8125 L 92.0000,47.2500 L 74.6250,64.3125 L 59.0000,84.0000 L 43.3469,109.4490 L 30.1020,137.7959 L 19.2653,169.0408 L 10.8367,203.1837 L 4.8163,240.2245 L 1.2041,280.1633 L 0.0000,323.0000 L 1.2041,364.7959 L 4.8163,403.8979 L 10.8367,440.3062 L 19.2653,474.0204 L 30.1020,505.0408 L 43.3469,533.3674 L 59.0000,559.0000 L 74.6250,578.9219 L 92.0000,596.1875 L 111.1250,610.7969 L 132.0000,622.7500 L 154.6250,632.0469 L 179.0000,638.6875 L 205.1250,642.6719 L 233.0000,644.0000 L 260.4141,642.6719 L 286.1562,638.6875 L 310.2266,632.0469 L 332.6250,622.7500 L 353.3516,610.7969 L 372.4062,596.1875 L 389.7891,578.9219 L 405.5000,559.0000 L 421.2857,533.3674 L 434.6429,505.0408 L 445.5714,474.0204 L 454.0714,440.3061 L 460.1429,403.8979 L 463.7857,364.7959 L 465.0000,323.0000 L 463.7857,280.1633 L 460.1429,240.2245 L 454.0714,203.1837 L 445.5714,169.0408 L 434.6429,137.7959 L 421.2857,109.4490 L 405.5000,84.0000 L 389.7891,64.3125 L 372.4062,47.2500 L 353.3516,32.8125 L 332.6250,21.0000 L 310.2266,11.8125 L 286.1562,5.2500 L 260.4141,1.3125 L 233.0000,0.0000 L 233.0000,0.0000 L 233.0000,0.0000" fill="none" stroke="black" stroke-width="9.30"/>
  <path d="M 233.0000,92.0000 L 251.0000,93.5972 L 267.6667,98.3889 L 283.0000,106.3750 L 297.0000,117.5556 L 309.6667,131.9306 L 321.0000,149.5000 L 330.7778,170.3194 L 338.7778,194.4445 L 345.0000,221.8750 L 349.4444,252.6111 L 352.1111,286.6528 L 353.0000,324.0000 L 352.1111,358.9583 L 349.4445,391.1667 L 345.0000,420.6250 L 338.7778,447.3333 L 330.7778,471.2917 L 321.0000,492.5000 L 309.6667,510.6806 L 297.0000,525.5556 L 283.0000,537.1250 L 267.6667,545.3889 L 251.0000,550.3472 L 233.0000,552.0000 L 214.4028,550.3472 L 197.2778,545.3889 L 181.6250,537.1250 L 167.4444,525.5555 L 154.7361,510.6805 L 143.5000,492.5000 L 133.8750,471.2917 L 126.0000,447.3333 L 119.8750,420.6250 L 115.5000,391.1667 L 112.8750,358.9583 L 112.0000,324.0000 L 112.8750,286.6528 L 115.5000,252.6111 L 119.8750,221.8750 L 126.0000,194.4444 L 133.8750,170.3194 L 143.5000,149.5000 L 154.7361,131.9305 L 167.4444,117.5556 L 181.6250,106.3750 L 197.2778,98.3889 L 214.4028,93.5972 L 233.0000,92.0000 L 233.0000,92.0000 L 233.0000,92.0000" fill="none" stroke="black" stroke-width="9.30"/>
</svg>
